<svg width="16" height="16" viewBox="0 0 16 16" fill="none" xmlns="http://www.w3.org/2000/svg">
<g id="gradient">
<path id="Vector" d="M7.33285 6H8.66618V7.33333H7.33285V6ZM5.99951 7.33333H7.33285V8.66667H5.99951V7.33333ZM8.66618 7.33333H9.99951V8.66667H8.66618V7.33333ZM9.99951 6H11.3328V7.33333H9.99951V6ZM4.66618 6H5.99951V7.33333H4.66618V6ZM12.6662 2H3.33285C2.59951 2 1.99951 2.6 1.99951 3.33333V12.6667C1.99951 13.4 2.59951 14 3.33285 14H12.6662C13.3995 14 13.9995 13.4 13.9995 12.6667V3.33333C13.9995 2.6 13.3995 2 12.6662 2ZM5.99951 12H4.66618V10.6667H5.99951V12ZM8.66618 12H7.33285V10.6667H8.66618V12ZM11.3328 12H9.99951V10.6667H11.3328V12ZM12.6662 7.33333H11.3328V8.66667H12.6662V10H11.3328V8.66667H9.99951V10H8.66618V8.66667H7.33285V10H5.99951V8.66667H4.66618V10H3.33285V8.66667H4.66618V7.33333H3.33285V3.33333H12.6662V7.33333Z" fill="#999CA0"/>
</g>
</svg>
