<svg width="16" height="16" viewBox="0 0 16 16" fill="none" xmlns="http://www.w3.org/2000/svg">
<g id="gradient">
<path id="Vector" d="M7.33285 6.00024H8.66618V7.33358H7.33285V6.00024ZM5.99951 7.33358H7.33285V8.66691H5.99951V7.33358ZM8.66618 7.33358H9.99951V8.66691H8.66618V7.33358ZM9.99951 6.00024H11.3328V7.33358H9.99951V6.00024ZM4.66618 6.00024H5.99951V7.33358H4.66618V6.00024ZM12.6662 2.00024H3.33285C2.59951 2.00024 1.99951 2.60024 1.99951 3.33358V12.6669C1.99951 13.4002 2.59951 14.0002 3.33285 14.0002H12.6662C13.3995 14.0002 13.9995 13.4002 13.9995 12.6669V3.33358C13.9995 2.60024 13.3995 2.00024 12.6662 2.00024ZM5.99951 12.0002H4.66618V10.6669H5.99951V12.0002ZM8.66618 12.0002H7.33285V10.6669H8.66618V12.0002ZM11.3328 12.0002H9.99951V10.6669H11.3328V12.0002ZM12.6662 7.33358H11.3328V8.66691H12.6662V10.0002H11.3328V8.66691H9.99951V10.0002H8.66618V8.66691H7.33285V10.0002H5.99951V8.66691H4.66618V10.0002H3.33285V8.66691H4.66618V7.33358H3.33285V3.33358H12.6662V7.33358Z" fill="white"/>
</g>
</svg>
