<svg xmlns="http://www.w3.org/2000/svg" width="16" height="16" viewBox="0 0 16 16" fill="none">
  <path d="M12.6667 2H3.33333C2.6 2 2 2.6 2 3.33333V12.6667C2 13.4 2.6 14 3.33333 14H12.6667C13.4 14 14 13.4 14 12.6667V3.33333C14 2.6 13.4 2 12.6667 2ZM11.7267 3.33333L3.33333 11.7267V3.33333H11.7267ZM4.27333 12.6667L12.6667 4.27333V12.6667H4.27333ZM4 4.66667H7.33333V5.66667H4V4.66667ZM10.6667 8.33333H9.66667V9.66667H8.33333V10.6667H9.66667V12H10.6667V10.6667H12V9.66667H10.6667V8.33333Z" fill="#999CA0"/>
</svg>