<svg width="16" height="16" viewBox="0 0 16 16" fill="none" xmlns="http://www.w3.org/2000/svg">
<path d="M7.33337 2.71337V1.3667C5.99337 1.50003 4.77337 2.03337 3.7867 2.84003L4.73337 3.79337C5.47337 3.22003 6.36003 2.83337 7.33337 2.71337ZM12.2134 2.84003C11.2267 2.03337 10.0067 1.50003 8.6667 1.3667V2.71337C9.64003 2.83337 10.5267 3.22003 11.2667 3.79337L12.2134 2.84003ZM13.2867 7.33337H14.6334C14.5 5.99337 13.9667 4.77337 13.16 3.7867L12.2067 4.73337C12.78 5.47337 13.1667 6.36003 13.2867 7.33337ZM3.79337 4.73337L2.84003 3.7867C2.03337 4.77337 1.50003 5.99337 1.3667 7.33337H2.71337C2.83337 6.36003 3.22003 5.47337 3.79337 4.73337ZM2.71337 8.6667H1.3667C1.50003 10.0067 2.03337 11.2267 2.84003 12.2134L3.79337 11.26C3.22003 10.5267 2.83337 9.64003 2.71337 8.6667ZM10 8.00003C10 6.89337 9.1067 6.00003 8.00003 6.00003C6.89337 6.00003 6.00003 6.89337 6.00003 8.00003C6.00003 9.1067 6.89337 10 8.00003 10C9.1067 10 10 9.1067 10 8.00003ZM12.2067 11.2667L13.16 12.22C13.9667 11.2334 14.5 10.0067 14.6334 8.67337H13.2867C13.1667 9.64003 12.78 10.5267 12.2067 11.2667ZM8.6667 13.2867V14.6334C10.0067 14.5 11.2267 13.9667 12.2134 13.16L11.26 12.2067C10.5267 12.78 9.64003 13.1667 8.6667 13.2867ZM3.7867 13.16C4.77337 13.9667 6.00003 14.5 7.33337 14.6334V13.2867C6.36003 13.1667 5.47337 12.78 4.73337 12.2067L3.7867 13.16Z" fill="white"/>
</svg>
