<svg xmlns="http://www.w3.org/2000/svg" width="16" height="16" viewBox="0 0 16 16" fill="none">
  <path d="M2.83337 7C2.28004 7 1.83337 7.44667 1.83337 8C1.83337 8.55333 2.28004 9 2.83337 9C3.38671 9 3.83337 8.55333 3.83337 8C3.83337 7.44667 3.38671 7 2.83337 7ZM2.83337 3C2.28004 3 1.83337 3.44667 1.83337 4C1.83337 4.55333 2.28004 5 2.83337 5C3.38671 5 3.83337 4.55333 3.83337 4C3.83337 3.44667 3.38671 3 2.83337 3ZM2.83337 11C2.28004 11 1.83337 11.4533 1.83337 12C1.83337 12.5467 2.28671 13 2.83337 13C3.38004 13 3.83337 12.5467 3.83337 12C3.83337 11.4533 3.38671 11 2.83337 11ZM4.83337 12.6667H14.1667V11.3333H4.83337V12.6667ZM4.83337 8.66667H14.1667V7.33333H4.83337V8.66667ZM4.83337 3.33333V4.66667H14.1667V3.33333H4.83337Z" fill="currentColor"/>
</svg>