<svg width="16" height="16" viewBox="0 0 16 16" fill="none" xmlns="http://www.w3.org/2000/svg">
<path d="M13 6.33325C12.3133 6.33325 11.7333 6.74659 11.4733 7.33325H9.52665C9.26665 6.74659 8.68665 6.33325 7.99998 6.33325C7.31331 6.33325 6.73331 6.74659 6.47331 7.33325H4.52665C4.26665 6.74659 3.68665 6.33325 2.99998 6.33325C2.07998 6.33325 1.33331 7.07992 1.33331 7.99992C1.33331 8.91992 2.07998 9.66659 2.99998 9.66659C3.68665 9.66659 4.26665 9.25325 4.52665 8.66659H6.47331C6.73331 9.25325 7.31331 9.66659 7.99998 9.66659C8.68665 9.66659 9.26665 9.25325 9.52665 8.66659H11.4733C11.7333 9.25325 12.3133 9.66659 13 9.66659C13.92 9.66659 14.6666 8.91992 14.6666 7.99992C14.6666 7.07992 13.92 6.33325 13 6.33325Z" fill="white"/>
</svg>
