<svg width="16" height="16" viewBox="0 0 16 16" fill="none" xmlns="http://www.w3.org/2000/svg">
<g id="linear_scale">
<path id="Vector" d="M12.9999 6.3335C12.3133 6.3335 11.7333 6.74683 11.4733 7.3335H9.52658C9.26658 6.74683 8.68658 6.3335 7.99992 6.3335C7.31325 6.3335 6.73325 6.74683 6.47325 7.3335H4.52659C4.26659 6.74683 3.68659 6.3335 2.99992 6.3335C2.07992 6.3335 1.33325 7.08016 1.33325 8.00016C1.33325 8.92016 2.07992 9.66683 2.99992 9.66683C3.68659 9.66683 4.26659 9.2535 4.52659 8.66683H6.47325C6.73325 9.2535 7.31325 9.66683 7.99992 9.66683C8.68658 9.66683 9.26658 9.2535 9.52658 8.66683H11.4733C11.7333 9.2535 12.3133 9.66683 12.9999 9.66683C13.9199 9.66683 14.6666 8.92016 14.6666 8.00016C14.6666 7.08016 13.9199 6.3335 12.9999 6.3335Z" fill="#999CA0"/>
</g>
</svg>
