<svg width="16" height="16" viewBox="0 0 16 16" fill="none" xmlns="http://www.w3.org/2000/svg">
<g id="link_off">
<path id="Vector" d="M9.5935 7.37686L10.6668 8.4502V7.37686H9.5935ZM11.3335 4.7102H8.66683V5.97686H11.3335C12.4735 5.97686 13.4002 6.90353 13.4002 8.04353C13.4002 8.8902 12.8868 9.62353 12.1535 9.93686L13.0868 10.8702C14.0335 10.2835 14.6668 9.23686 14.6668 8.04353C14.6668 6.20353 13.1735 4.7102 11.3335 4.7102ZM1.3335 2.8902L3.40683 4.96353C2.1935 5.45686 1.3335 6.6502 1.3335 8.04353C1.3335 9.88353 2.82683 11.3769 4.66683 11.3769H7.3335V10.1102H4.66683C3.52683 10.1102 2.60016 9.18353 2.60016 8.04353C2.60016 6.98353 3.40683 6.1102 4.44016 5.99686L5.82016 7.37686H5.3335V8.7102H7.1535L8.66683 10.2235V11.3769H9.82016L12.4935 14.0502L13.4335 13.1102L2.2735 1.9502L1.3335 2.8902Z" fill="#999CA0"/>
</g>
</svg>
