<svg width="16" height="16" viewBox="0 0 16 16" fill="none" xmlns="http://www.w3.org/2000/svg">
<g id="format_color_fill">
<path id="Vector" d="M11.0397 5.96L5.07967 0L4.13967 0.94L5.72634 2.52667L2.29301 5.96C1.89967 6.35333 1.89967 6.98667 2.29301 7.37333L5.95967 11.04C6.15301 11.2333 6.41301 11.3333 6.66634 11.3333C6.91967 11.3333 7.17967 11.2333 7.37301 11.04L11.0397 7.37333C11.433 6.98667 11.433 6.35333 11.0397 5.96ZM3.47301 6.66667L6.66634 3.47333L9.85967 6.66667H3.47301ZM12.6663 7.66667C12.6663 7.66667 11.333 9.11333 11.333 10C11.333 10.7333 11.933 11.3333 12.6663 11.3333C13.3997 11.3333 13.9997 10.7333 13.9997 10C13.9997 9.11333 12.6663 7.66667 12.6663 7.66667ZM1.33301 13.3333H14.6663V16H1.33301V13.3333Z" fill="#999CA0"/>
</g>
</svg>
