<svg width="16" height="16" viewBox="0 0 16 16" fill="none" xmlns="http://www.w3.org/2000/svg">
<path d="M9.41203 3.33333L10.632 4.66667H13.332V12.6667H2.66536V4.66667H5.36536L6.58536 3.33333H9.41203ZM9.9987 2H5.9987L4.7787 3.33333H2.66536C1.93203 3.33333 1.33203 3.93333 1.33203 4.66667V12.6667C1.33203 13.4 1.93203 14 2.66536 14H13.332C14.0654 14 14.6654 13.4 14.6654 12.6667V4.66667C14.6654 3.93333 14.0654 3.33333 13.332 3.33333H11.2187L9.9987 2ZM7.9987 6.66667C9.0987 6.66667 9.9987 7.56667 9.9987 8.66667C9.9987 9.76667 9.0987 10.6667 7.9987 10.6667C6.8987 10.6667 5.9987 9.76667 5.9987 8.66667C5.9987 7.56667 6.8987 6.66667 7.9987 6.66667ZM7.9987 5.33333C6.1587 5.33333 4.66536 6.82667 4.66536 8.66667C4.66536 10.5067 6.1587 12 7.9987 12C9.8387 12 11.332 10.5067 11.332 8.66667C11.332 6.82667 9.8387 5.33333 7.9987 5.33333Z" fill="#999CA0"/>
</svg>
