<svg width="16" height="16" viewBox="0 0 16 16" fill="none" xmlns="http://www.w3.org/2000/svg">
<g id="push_pin">
<path id="Vector" d="M9.33325 2.66683V6.00016C9.33325 6.74683 9.57992 7.44016 9.99992 8.00016H5.99992C6.43325 7.42683 6.66659 6.7335 6.66659 6.00016V2.66683H9.33325ZM11.3333 1.3335H4.66659C4.29992 1.3335 3.99992 1.6335 3.99992 2.00016C3.99992 2.36683 4.29992 2.66683 4.66659 2.66683H5.33325V6.00016C5.33325 7.10683 4.43992 8.00016 3.33325 8.00016V9.3335H7.31325V14.0002L7.97992 14.6668L8.64659 14.0002V9.3335H12.6666V8.00016C11.5599 8.00016 10.6666 7.10683 10.6666 6.00016V2.66683H11.3333C11.6999 2.66683 11.9999 2.36683 11.9999 2.00016C11.9999 1.6335 11.6999 1.3335 11.3333 1.3335Z" fill="#999ca0"/>
</g>
</svg> 