<svg xmlns="http://www.w3.org/2000/svg" width="16" height="16" viewBox="0 0 16 16" fill="none">
  <path d="M9.33337 2.66671V6.00004C9.33337 6.74671 9.58004 7.44004 10 8.00004H6.00004C6.43337 7.42671 6.66671 6.73337 6.66671 6.00004V2.66671H9.33337ZM11.3334 1.33337H4.66671C4.30004 1.33337 4.00004 1.63337 4.00004 2.00004C4.00004 2.36671 4.30004 2.66671 4.66671 2.66671H5.33337V6.00004C5.33337 7.10671 4.44004 8.00004 3.33337 8.00004V9.33337H7.31337V14L7.98004 14.6667L8.64671 14V9.33337H12.6667V8.00004C11.56 8.00004 10.6667 7.10671 10.6667 6.00004V2.66671H11.3334C11.7 2.66671 12 2.36671 12 2.00004C12 1.63337 11.7 1.33337 11.3334 1.33337Z" fill="currentColor"/>
</svg>