<svg xmlns="http://www.w3.org/2000/svg" width="16" height="16" viewBox="0 0 16 16" fill="none">
  <path d="M7.37919 8.23329C7.89252 7.30663 8.87919 6.75996 9.45253 5.93996C10.0592 5.07996 9.71919 3.47329 7.99919 3.47329C6.87252 3.47329 6.31919 4.32663 6.08586 5.03329L4.35919 4.30663C4.83253 2.88663 6.11919 1.66663 7.99252 1.66663C9.55919 1.66663 10.6325 2.37996 11.1792 3.27329C11.6459 4.03996 11.9192 5.47329 11.1992 6.53996C10.3992 7.71996 9.63252 8.07996 9.21919 8.83996C9.05253 9.14663 8.98586 9.34663 8.98586 10.3333H7.05919C7.05253 9.81329 6.97252 8.96663 7.37919 8.23329ZM9.33252 13C9.33252 13.7333 8.73252 14.3333 7.99919 14.3333C7.26586 14.3333 6.66586 13.7333 6.66586 13C6.66586 12.2666 7.26586 11.6666 7.99919 11.6666C8.73252 11.6666 9.33252 12.2666 9.33252 13Z" fill="currentColor"/>
</svg>