<svg xmlns="http://www.w3.org/2000/svg" width="16" height="16" viewBox="0 0 16 16" fill="none">
  <path d="M12.9548 8.65337C12.9815 8.44004 13.0015 8.22671 13.0015 8.00004C13.0015 7.77337 12.9815 7.56004 12.9548 7.34671L14.3615 6.24671C14.4881 6.14671 14.5215 5.96671 14.4415 5.82004L13.1081 3.51337C13.0481 3.40671 12.9348 3.34671 12.8148 3.34671C12.7748 3.34671 12.7348 3.35337 12.7015 3.36671L11.0415 4.03337C10.6948 3.76671 10.3215 3.54671 9.91481 3.38004L9.66148 1.61337C9.64148 1.45337 9.50148 1.33337 9.33481 1.33337H6.66815C6.50148 1.33337 6.36148 1.45337 6.34148 1.61337L6.08815 3.38004C5.68148 3.54671 5.30815 3.77337 4.96148 4.03337L3.30148 3.36671C3.26148 3.35337 3.22148 3.34671 3.18148 3.34671C3.06815 3.34671 2.95481 3.40671 2.89481 3.51337L1.56148 5.82004C1.47481 5.96671 1.51481 6.14671 1.64148 6.24671L3.04815 7.34671C3.02148 7.56004 3.00148 7.78004 3.00148 8.00004C3.00148 8.22004 3.02148 8.44004 3.04815 8.65337L1.64148 9.75337C1.51481 9.85337 1.48148 10.0334 1.56148 10.18L2.89481 12.4867C2.95481 12.5934 3.06815 12.6534 3.18815 12.6534C3.22815 12.6534 3.26815 12.6467 3.30148 12.6334L4.96148 11.9667C5.30815 12.2334 5.68148 12.4534 6.08815 12.62L6.34148 14.3867C6.36148 14.5467 6.50148 14.6667 6.66815 14.6667H9.33481C9.50148 14.6667 9.64148 14.5467 9.66148 14.3867L9.91481 12.62C10.3215 12.4534 10.6948 12.2267 11.0415 11.9667L12.7015 12.6334C12.7415 12.6467 12.7815 12.6534 12.8215 12.6534C12.9348 12.6534 13.0481 12.5934 13.1081 12.4867L14.4415 10.18C14.5215 10.0334 14.4881 9.85337 14.3615 9.75337L12.9548 8.65337ZM11.6348 7.51337C11.6615 7.72004 11.6681 7.86004 11.6681 8.00004C11.6681 8.14004 11.6548 8.28671 11.6348 8.48671L11.5415 9.24004L12.1348 9.70671L12.8548 10.2667L12.3881 11.0734L11.5415 10.7334L10.8481 10.4534L10.2481 10.9067C9.96148 11.12 9.68815 11.28 9.41481 11.3934L8.70815 11.68L8.60148 12.4334L8.46815 13.3334H7.53481L7.30148 11.68L6.59481 11.3934C6.30815 11.2734 6.04148 11.12 5.77481 10.92L5.16815 10.4534L4.46148 10.74L3.61481 11.08L3.14815 10.2734L3.86815 9.71337L4.46148 9.24671L4.36815 8.49337C4.34815 8.28671 4.33481 8.13337 4.33481 8.00004C4.33481 7.86671 4.34815 7.71337 4.36815 7.51337L4.46148 6.76004L3.86815 6.29337L3.14815 5.73337L3.61481 4.92671L4.46148 5.26671L5.15481 5.54671L5.75481 5.09337C6.04148 4.88004 6.31481 4.72004 6.58815 4.60671L7.29481 4.32004L7.40148 3.56671L7.53481 2.66671H8.46148L8.69481 4.32004L9.40148 4.60671C9.68815 4.72671 9.95481 4.88004 10.2215 5.08004L10.8281 5.54671L11.5348 5.26004L12.3815 4.92004L12.8481 5.72671L12.1348 6.29337L11.5415 6.76004L11.6348 7.51337ZM8.00148 5.33337C6.52815 5.33337 5.33481 6.52671 5.33481 8.00004C5.33481 9.47337 6.52815 10.6667 8.00148 10.6667C9.47481 10.6667 10.6681 9.47337 10.6681 8.00004C10.6681 6.52671 9.47481 5.33337 8.00148 5.33337ZM8.00148 9.33337C7.26815 9.33337 6.66815 8.73337 6.66815 8.00004C6.66815 7.26671 7.26815 6.66671 8.00148 6.66671C8.73481 6.66671 9.33481 7.26671 9.33481 8.00004C9.33481 8.73337 8.73481 9.33337 8.00148 9.33337Z" fill="currentColor"/>
</svg>