<svg xmlns="http://www.w3.org/2000/svg" width="16" height="16" viewBox="0 0 16 16" fill="none">
  <path d="M8.00002 3.98337C10.5267 3.98337 12.78 5.40337 13.88 7.65003C13.4867 8.46337 12.9334 9.16337 12.2734 9.73003L13.2134 10.67C14.14 9.85003 14.8734 8.82337 15.3334 7.65003C14.18 4.72337 11.3334 2.65003 8.00002 2.65003C7.15335 2.65003 6.34002 2.78337 5.57335 3.03003L6.67335 4.13003C7.10669 4.04337 7.54669 3.98337 8.00002 3.98337ZM7.28669 4.74337L8.66669 6.12337C9.04669 6.29003 9.35335 6.5967 9.52002 6.9767L10.9 8.3567C10.9534 8.13003 10.9934 7.89003 10.9934 7.64337C11 5.99003 9.65335 4.65003 8.00002 4.65003C7.75335 4.65003 7.52002 4.68337 7.28669 4.74337ZM1.34002 2.56337L3.12669 4.35003C2.04002 5.20337 1.18002 6.3367 0.666687 7.65003C1.82002 10.5767 4.66669 12.65 8.00002 12.65C9.01335 12.65 9.98669 12.4567 10.88 12.1034L13.16 14.3834L14.1 13.4434L2.28002 1.6167L1.34002 2.56337ZM6.34002 7.56337L8.08002 9.30337C8.05335 9.31003 8.02669 9.3167 8.00002 9.3167C7.08002 9.3167 6.33335 8.57003 6.33335 7.65003C6.33335 7.6167 6.34002 7.5967 6.34002 7.56337ZM4.07335 5.2967L5.24002 6.46337C5.08669 6.83003 5.00002 7.23003 5.00002 7.65003C5.00002 9.30337 6.34669 10.65 8.00002 10.65C8.42002 10.65 8.82002 10.5634 9.18002 10.41L9.83335 11.0634C9.24669 11.2234 8.63335 11.3167 8.00002 11.3167C5.47335 11.3167 3.22002 9.8967 2.12002 7.65003C2.58669 6.6967 3.26669 5.91003 4.07335 5.2967Z" fill="currentColor"/>
</svg>