<svg width="16" height="16" viewBox="0 0 16 16" fill="none" xmlns="http://www.w3.org/2000/svg">
<g id="v5/help_outline">
<path id="Vector" d="M7.33333 12.0007H8.66666V10.6673H7.33333V12.0007ZM8 1.33398C4.31999 1.33398 1.33333 4.32065 1.33333 8.00065C1.33333 11.6807 4.31999 14.6673 8 14.6673C11.68 14.6673 14.6667 11.6807 14.6667 8.00065C14.6667 4.32065 11.68 1.33398 8 1.33398ZM8 13.334C5.06 13.334 2.66666 10.9407 2.66666 8.00065C2.66666 5.06065 5.06 2.66732 8 2.66732C10.94 2.66732 13.3333 5.06065 13.3333 8.00065C13.3333 10.9407 10.94 13.334 8 13.334ZM8 4.00065C6.52666 4.00065 5.33333 5.19398 5.33333 6.66732H6.66666C6.66666 5.93398 7.26666 5.33398 8 5.33398C8.73333 5.33398 9.33333 5.93398 9.33333 6.66732C9.33333 8.00065 7.33333 7.83398 7.33333 10.0007H8.66666C8.66666 8.50065 10.6667 8.33398 10.6667 6.66732C10.6667 5.19398 9.47333 4.00065 8 4.00065Z" fill="#999CA0"/>
</g>
</svg>
