<svg width="16" height="16" viewBox="0 0 16 16" fill="none" xmlns="http://www.w3.org/2000/svg">
  <path d="M11.6664 13.6667H2.33309V4.33333H8.33309V3H2.33309C1.59976 3 0.999756 3.6 0.999756 4.33333V13.6667C0.999756 14.4 1.59976 15 2.33309 15H11.6664C12.3998 15 12.9998 14.4 12.9998 13.6667V7.66667H11.6664V13.6667ZM6.47309 11.5533L5.16642 9.98L3.33309 12.3333H10.6664L8.30642 9.19333L6.47309 11.5533ZM12.9998 3V1H11.6664V3H9.66642C9.67309 3.00667 9.66642 4.33333 9.66642 4.33333H11.6664V6.32667C11.6731 6.33333 12.9998 6.32667 12.9998 6.32667V4.33333H14.9998V3H12.9998Z" fill="#999CA0"/>
</svg>